<?xml version="1.0" standalone="no"?>
<!DOCTYPE svg PUBLIC "-//W3C//DTD SVG 20010904//EN"
 "http://www.w3.org/TR/2001/REC-SVG-20010904/DTD/svg10.dtd">
<svg version="1.0" xmlns="http://www.w3.org/2000/svg"
 width="566.000000pt" height="441.000000pt" viewBox="0 0 566.000000 441.000000"
 preserveAspectRatio="xMidYMid meet">

<g transform="translate(0.000000,441.000000) scale(0.100000,-0.100000)"
fill="#000000" stroke="none">
<path d="M3199 3732 c-41 -13 -56 -46 -109 -237 -12 -44 -30 -107 -40 -140
-10 -33 -30 -100 -44 -150 -14 -49 -42 -146 -62 -215 -20 -69 -40 -138 -44
-155 -4 -16 -24 -86 -45 -155 -20 -69 -43 -147 -51 -175 -8 -27 -22 -79 -32
-115 -11 -36 -34 -117 -51 -180 -18 -63 -43 -149 -56 -190 -12 -41 -33 -111
-45 -155 -12 -44 -31 -107 -41 -140 -10 -33 -50 -168 -87 -300 -38 -132 -116
-399 -172 -594 -121 -417 -121 -389 7 -433 43 -14 97 -27 119 -27 58 -1 69 18
119 204 15 55 34 120 42 145 8 25 21 68 28 95 8 28 34 120 58 205 25 85 79
274 121 420 41 146 82 285 90 310 8 25 31 101 50 170 69 248 107 376 131 455
23 73 95 323 150 520 12 44 27 96 33 115 7 19 41 139 78 265 36 127 72 250 80
274 31 98 14 122 -117 159 -53 16 -102 26 -110 24z"/>
<path d="M1183 2677 c-558 -557 -593 -594 -593 -627 0 -33 36 -71 594 -629
l594 -594 38 6 c29 5 53 22 105 73 77 77 94 103 85 137 -3 14 -214 232 -498
516 l-492 491 497 498 c286 286 497 505 497 515 0 32 -21 60 -97 135 -61 59
-80 72 -106 72 -29 0 -90 -58 -624 -593z"/>
<path d="M3741 3191 c-132 -128 -171 -66 411 -648 l493 -493 -385 -386 c-212
-212 -433 -433 -492 -491 -98 -97 -108 -110 -108 -144 0 -32 9 -45 77 -114
129 -130 47 -186 738 506 415 415 596 603 601 622 6 27 -24 60 -592 628 -542
542 -602 599 -631 599 -26 0 -46 -14 -112 -79z"/>
</g>
</svg>
